<svg width="208" height="160" viewBox="0 0 208 160" fill="none" xmlns="http://www.w3.org/2000/svg">
<rect x="77" y="116" width="53" height="20" stroke="#808080" stroke-width="2"/>
<rect x="77" y="35" width="54" height="52" stroke="#808080" stroke-width="2" stroke-dasharray="4 4"/>
<path d="M132 35L121.095 23H85.8378L76 35" stroke="#808080" stroke-width="2" stroke-dasharray="4 4"/>
<path d="M1 1H207V116H1V1Z" stroke="#808080" stroke-width="2"/>
<g filter="url(#filter0_d_652_183)">
<circle cx="121" cy="78" r="2" fill="#45FD7C"/>
</g>
<path d="M76.7513 136.636C76.9013 136.252 77.2709 136 77.6825 136H129.223C129.619 136 129.978 136.234 130.138 136.597L139.382 157.597C139.673 158.258 139.189 159 138.467 159H69.4651C68.7609 159 68.2773 158.291 68.5339 157.636L76.7513 136.636Z" stroke="#808080" stroke-width="2"/>
<line x1="1" y1="108" x2="207" y2="108" stroke="#808080" stroke-width="2"/>
<defs>
<filter id="filter0_d_652_183" x="78.7" y="35.7" width="84.6" height="84.6" filterUnits="userSpaceOnUse" color-interpolation-filters="sRGB">
<feFlood flood-opacity="0" result="BackgroundImageFix"/>
<feColorMatrix in="SourceAlpha" type="matrix" values="0 0 0 0 0 0 0 0 0 0 0 0 0 0 0 0 0 0 127 0" result="hardAlpha"/>
<feMorphology radius="9" operator="dilate" in="SourceAlpha" result="effect1_dropShadow_652_183"/>
<feOffset/>
<feGaussianBlur stdDeviation="15.65"/>
<feComposite in2="hardAlpha" operator="out"/>
<feColorMatrix type="matrix" values="0 0 0 0 0.270588 0 0 0 0 0.992157 0 0 0 0 0.487059 0 0 0 0.4 0"/>
<feBlend mode="normal" in2="BackgroundImageFix" result="effect1_dropShadow_652_183"/>
<feBlend mode="normal" in="SourceGraphic" in2="effect1_dropShadow_652_183" result="shape"/>
</filter>
</defs>
</svg>
