<svg width="717" height="466" viewBox="0 0 717 466" fill="none" xmlns="http://www.w3.org/2000/svg">
<path d="M717 466H0V30H60V40H10V456H707V40H224V30H717V466Z" fill="#808080"/>
<path d="M86.72 144.44L81.68 135.14H81.5V170H76.58V128.12H82.4L97.7 153.68L102.74 162.98H102.92V128.12H107.84V170H102.02L86.72 144.44ZM134.662 170.72C131.942 170.72 129.482 170.26 127.282 169.34C125.122 168.38 123.262 167 121.702 165.2C120.182 163.36 119.002 161.1 118.162 158.42C117.322 155.7 116.902 152.58 116.902 149.06C116.902 145.54 117.322 142.44 118.162 139.76C119.002 137.08 120.182 134.82 121.702 132.98C123.262 131.14 125.122 129.76 127.282 128.84C129.482 127.88 131.942 127.4 134.662 127.4C137.342 127.4 139.782 127.88 141.982 128.84C144.182 129.76 146.042 131.14 147.562 132.98C149.122 134.82 150.322 137.08 151.162 139.76C152.002 142.44 152.422 145.54 152.422 149.06C152.422 152.58 152.002 155.7 151.162 158.42C150.322 161.1 149.122 163.36 147.562 165.2C146.042 167 144.182 168.38 141.982 169.34C139.782 170.26 137.342 170.72 134.662 170.72ZM134.662 166.22C136.462 166.22 138.122 165.9 139.642 165.26C141.162 164.62 142.462 163.7 143.542 162.5C144.662 161.3 145.522 159.86 146.122 158.18C146.722 156.5 147.022 154.62 147.022 152.54V145.58C147.022 143.5 146.722 141.62 146.122 139.94C145.522 138.26 144.662 136.82 143.542 135.62C142.462 134.42 141.162 133.5 139.642 132.86C138.122 132.22 136.462 131.9 134.662 131.9C132.862 131.9 131.202 132.22 129.682 132.86C128.162 133.5 126.842 134.42 125.722 135.62C124.642 136.82 123.802 138.26 123.202 139.94C122.602 141.62 122.302 143.5 122.302 145.58V152.54C122.302 154.62 122.602 156.5 123.202 158.18C123.802 159.86 124.642 161.3 125.722 162.5C126.842 163.7 128.162 164.62 129.682 165.26C131.202 165.9 132.862 166.22 134.662 166.22ZM208.302 134.72H208.002L204.462 141.74L194.442 159.98L184.422 141.74L180.882 134.72H180.582V170H175.662V128.12H182.382L194.382 150.68H194.682L206.742 128.12H213.222V170H208.302V134.72ZM250.573 170L246.373 157.64H229.453L225.253 170H220.153L234.793 128.12H241.213L255.853 170H250.573ZM238.033 132.8H237.733L230.653 153.2H245.113L238.033 132.8ZM276.672 170.72C271.352 170.72 267.212 168.92 264.252 165.32C261.292 161.68 259.812 156.34 259.812 149.3C259.812 142.26 261.292 136.86 264.252 133.1C267.212 129.3 271.352 127.4 276.672 127.4C280.192 127.4 283.132 128.2 285.492 129.8C287.892 131.4 289.752 133.66 291.072 136.58L286.992 139.04C286.152 136.88 284.872 135.16 283.152 133.88C281.432 132.56 279.272 131.9 276.672 131.9C274.872 131.9 273.252 132.24 271.812 132.92C270.412 133.6 269.212 134.58 268.212 135.86C267.252 137.1 266.512 138.6 265.992 140.36C265.472 142.08 265.212 144.02 265.212 146.18V152.42C265.212 156.74 266.212 160.12 268.212 162.56C270.212 165 273.032 166.22 276.672 166.22C279.352 166.22 281.592 165.54 283.392 164.18C285.192 162.78 286.512 160.94 287.352 158.66L291.372 161.18C290.052 164.14 288.152 166.48 285.672 168.2C283.192 169.88 280.192 170.72 276.672 170.72ZM325.398 151.04H304.218V170H299.178V128.12H304.218V146.6H325.398V128.12H330.438V170H325.398V151.04ZM339.62 170V165.8H345.5V132.32H339.62V128.12H356.42V132.32H350.54V165.8H356.42V170H339.62ZM375.763 144.44L370.723 135.14H370.543V170H365.623V128.12H371.443L386.743 153.68L391.783 162.98H391.963V128.12H396.883V170H391.063L375.763 144.44ZM408.045 170V128.12H433.605V132.56H413.085V146.6H432.405V151.04H413.085V165.56H433.605V170H408.045ZM454.785 170.72C451.385 170.72 448.485 170.08 446.085 168.8C443.685 167.48 441.645 165.68 439.965 163.4L443.685 160.28C445.165 162.24 446.805 163.74 448.605 164.78C450.405 165.78 452.525 166.28 454.965 166.28C457.965 166.28 460.245 165.56 461.805 164.12C463.405 162.68 464.205 160.76 464.205 158.36C464.205 156.36 463.605 154.82 462.405 153.74C461.205 152.66 459.225 151.8 456.465 151.16L453.045 150.38C449.205 149.5 446.265 148.18 444.225 146.42C442.225 144.62 441.225 142.1 441.225 138.86C441.225 137.02 441.565 135.38 442.245 133.94C442.925 132.5 443.865 131.3 445.065 130.34C446.305 129.38 447.765 128.66 449.445 128.18C451.165 127.66 453.045 127.4 455.085 127.4C458.245 127.4 460.945 127.98 463.185 129.14C465.465 130.3 467.385 132 468.945 134.24L465.165 137C464.005 135.4 462.605 134.14 460.965 133.22C459.325 132.3 457.285 131.84 454.845 131.84C452.165 131.84 450.045 132.42 448.485 133.58C446.965 134.7 446.205 136.4 446.205 138.68C446.205 140.68 446.845 142.2 448.125 143.24C449.445 144.24 451.425 145.04 454.065 145.64L457.485 146.42C461.605 147.34 464.585 148.74 466.425 150.62C468.265 152.5 469.185 155 469.185 158.12C469.185 160.04 468.845 161.78 468.165 163.34C467.525 164.9 466.585 166.22 465.345 167.3C464.105 168.38 462.585 169.22 460.785 169.82C459.025 170.42 457.025 170.72 454.785 170.72ZM506.168 132.56V170H501.128V132.56H487.808V128.12H519.488V132.56H506.168ZM540.892 170.72C538.172 170.72 535.712 170.26 533.512 169.34C531.352 168.38 529.492 167 527.932 165.2C526.412 163.36 525.232 161.1 524.392 158.42C523.552 155.7 523.132 152.58 523.132 149.06C523.132 145.54 523.552 142.44 524.392 139.76C525.232 137.08 526.412 134.82 527.932 132.98C529.492 131.14 531.352 129.76 533.512 128.84C535.712 127.88 538.172 127.4 540.892 127.4C543.572 127.4 546.012 127.88 548.212 128.84C550.412 129.76 552.272 131.14 553.792 132.98C555.352 134.82 556.552 137.08 557.392 139.76C558.232 142.44 558.652 145.54 558.652 149.06C558.652 152.58 558.232 155.7 557.392 158.42C556.552 161.1 555.352 163.36 553.792 165.2C552.272 167 550.412 168.38 548.212 169.34C546.012 170.26 543.572 170.72 540.892 170.72ZM540.892 166.22C542.692 166.22 544.352 165.9 545.872 165.26C547.392 164.62 548.692 163.7 549.772 162.5C550.892 161.3 551.752 159.86 552.352 158.18C552.952 156.5 553.252 154.62 553.252 152.54V145.58C553.252 143.5 552.952 141.62 552.352 139.94C551.752 138.26 550.892 136.82 549.772 135.62C548.692 134.42 547.392 133.5 545.872 132.86C544.352 132.22 542.692 131.9 540.892 131.9C539.092 131.9 537.432 132.22 535.912 132.86C534.392 133.5 533.072 134.42 531.952 135.62C530.872 136.82 530.032 138.26 529.432 139.94C528.832 141.62 528.532 143.5 528.532 145.58V152.54C528.532 154.62 528.832 156.5 529.432 158.18C530.032 159.86 530.872 161.3 531.952 162.5C533.072 163.7 534.392 164.62 535.912 165.26C537.432 165.9 539.092 166.22 540.892 166.22ZM88.34 248.72C84.94 248.72 82.04 248.08 79.64 246.8C77.24 245.48 75.2 243.68 73.52 241.4L77.24 238.28C78.72 240.24 80.36 241.74 82.16 242.78C83.96 243.78 86.08 244.28 88.52 244.28C91.52 244.28 93.8 243.56 95.36 242.12C96.96 240.68 97.76 238.76 97.76 236.36C97.76 234.36 97.16 232.82 95.96 231.74C94.76 230.66 92.78 229.8 90.02 229.16L86.6 228.38C82.76 227.5 79.82 226.18 77.78 224.42C75.78 222.62 74.78 220.1 74.78 216.86C74.78 215.02 75.12 213.38 75.8 211.94C76.48 210.5 77.42 209.3 78.62 208.34C79.86 207.38 81.32 206.66 83 206.18C84.72 205.66 86.6 205.4 88.64 205.4C91.8 205.4 94.5 205.98 96.74 207.14C99.02 208.3 100.94 210 102.5 212.24L98.72 215C97.56 213.4 96.16 212.14 94.52 211.22C92.88 210.3 90.84 209.84 88.4 209.84C85.72 209.84 83.6 210.42 82.04 211.58C80.52 212.7 79.76 214.4 79.76 216.68C79.76 218.68 80.4 220.2 81.68 221.24C83 222.24 84.98 223.04 87.62 223.64L91.04 224.42C95.16 225.34 98.14 226.74 99.98 228.62C101.82 230.5 102.74 233 102.74 236.12C102.74 238.04 102.4 239.78 101.72 241.34C101.08 242.9 100.14 244.22 98.9 245.3C97.66 246.38 96.14 247.22 94.34 247.82C92.58 248.42 90.58 248.72 88.34 248.72ZM111.443 248V206.12H137.003V210.56H116.483V224.6H135.803V229.04H116.483V243.56H137.003V248H111.443ZM146.424 248V206.12H171.984V210.56H151.464V224.6H170.784V229.04H151.464V243.56H171.984V248H146.424ZM183.984 248.72C182.704 248.72 181.764 248.4 181.164 247.76C180.604 247.12 180.324 246.28 180.324 245.24V244.46C180.324 243.42 180.604 242.58 181.164 241.94C181.764 241.3 182.704 240.98 183.984 240.98C185.264 240.98 186.184 241.3 186.744 241.94C187.344 242.58 187.644 243.42 187.644 244.46V245.24C187.644 246.28 187.344 247.12 186.744 247.76C186.184 248.4 185.264 248.72 183.984 248.72ZM200.332 248.72C199.052 248.72 198.112 248.4 197.512 247.76C196.952 247.12 196.672 246.28 196.672 245.24V244.46C196.672 243.42 196.952 242.58 197.512 241.94C198.112 241.3 199.052 240.98 200.332 240.98C201.612 240.98 202.532 241.3 203.092 241.94C203.692 242.58 203.992 243.42 203.992 244.46V245.24C203.992 246.28 203.692 247.12 203.092 247.76C202.532 248.4 201.612 248.72 200.332 248.72ZM216.68 248.72C215.4 248.72 214.46 248.4 213.86 247.76C213.3 247.12 213.02 246.28 213.02 245.24V244.46C213.02 243.42 213.3 242.58 213.86 241.94C214.46 241.3 215.4 240.98 216.68 240.98C217.96 240.98 218.88 241.3 219.44 241.94C220.04 242.58 220.34 243.42 220.34 244.46V245.24C220.34 246.28 220.04 247.12 219.44 247.76C218.88 248.4 217.96 248.72 216.68 248.72ZM102.8 404L98.6 391.64H81.68L77.48 404H72.38L87.02 362.12H93.44L108.08 404H102.8ZM90.26 366.8H89.96L82.88 387.2H97.34L90.26 366.8ZM115.018 362.12H129.058C131.658 362.12 134.018 362.56 136.138 363.44C138.258 364.32 140.058 365.64 141.538 367.4C143.058 369.12 144.218 371.3 145.018 373.94C145.818 376.54 146.218 379.58 146.218 383.06C146.218 386.54 145.818 389.6 145.018 392.24C144.218 394.84 143.058 397.02 141.538 398.78C140.058 400.5 138.258 401.8 136.138 402.68C134.018 403.56 131.658 404 129.058 404H115.018V362.12ZM129.058 399.56C130.778 399.56 132.358 399.28 133.798 398.72C135.238 398.12 136.478 397.26 137.518 396.14C138.558 395.02 139.358 393.66 139.918 392.06C140.518 390.42 140.818 388.56 140.818 386.48V379.64C140.818 377.56 140.518 375.72 139.918 374.12C139.358 372.48 138.558 371.1 137.518 369.98C136.478 368.86 135.238 368.02 133.798 367.46C132.358 366.86 130.778 366.56 129.058 366.56H120.058V399.56H129.058ZM155.271 362.12H169.311C171.911 362.12 174.271 362.56 176.391 363.44C178.511 364.32 180.311 365.64 181.791 367.4C183.311 369.12 184.471 371.3 185.271 373.94C186.071 376.54 186.471 379.58 186.471 383.06C186.471 386.54 186.071 389.6 185.271 392.24C184.471 394.84 183.311 397.02 181.791 398.78C180.311 400.5 178.511 401.8 176.391 402.68C174.271 403.56 171.911 404 169.311 404H155.271V362.12ZM169.311 399.56C171.031 399.56 172.611 399.28 174.051 398.72C175.491 398.12 176.731 397.26 177.771 396.14C178.811 395.02 179.611 393.66 180.171 392.06C180.771 390.42 181.071 388.56 181.071 386.48V379.64C181.071 377.56 180.771 375.72 180.171 374.12C179.611 372.48 178.811 371.1 177.771 369.98C176.731 368.86 175.491 368.02 174.051 367.46C172.611 366.86 171.031 366.56 169.311 366.56H160.311V399.56H169.311ZM225.365 404.72C222.645 404.72 220.185 404.26 217.985 403.34C215.825 402.38 213.965 401 212.405 399.2C210.885 397.36 209.705 395.1 208.865 392.42C208.025 389.7 207.605 386.58 207.605 383.06C207.605 379.54 208.025 376.44 208.865 373.76C209.705 371.08 210.885 368.82 212.405 366.98C213.965 365.14 215.825 363.76 217.985 362.84C220.185 361.88 222.645 361.4 225.365 361.4C228.045 361.4 230.485 361.88 232.685 362.84C234.885 363.76 236.745 365.14 238.265 366.98C239.825 368.82 241.025 371.08 241.865 373.76C242.705 376.44 243.125 379.54 243.125 383.06C243.125 386.58 242.705 389.7 241.865 392.42C241.025 395.1 239.825 397.36 238.265 399.2C236.745 401 234.885 402.38 232.685 403.34C230.485 404.26 228.045 404.72 225.365 404.72ZM225.365 400.22C227.165 400.22 228.825 399.9 230.345 399.26C231.865 398.62 233.165 397.7 234.245 396.5C235.365 395.3 236.225 393.86 236.825 392.18C237.425 390.5 237.725 388.62 237.725 386.54V379.58C237.725 377.5 237.425 375.62 236.825 373.94C236.225 372.26 235.365 370.82 234.245 369.62C233.165 368.42 231.865 367.5 230.345 366.86C228.825 366.22 227.165 365.9 225.365 365.9C223.565 365.9 221.905 366.22 220.385 366.86C218.865 367.5 217.545 368.42 216.425 369.62C215.345 370.82 214.505 372.26 213.905 373.94C213.305 375.62 213.005 377.5 213.005 379.58V386.54C213.005 388.62 213.305 390.5 213.905 392.18C214.505 393.86 215.345 395.3 216.425 396.5C217.545 397.7 218.865 398.62 220.385 399.26C221.905 399.9 223.565 400.22 225.365 400.22ZM262.325 378.44L257.285 369.14H257.105V404H252.185V362.12H258.005L273.305 387.68L278.345 396.98H278.525V362.12H283.445V404H277.625L262.325 378.44ZM294.607 404V362.12H320.167V366.56H299.647V380.6H318.967V385.04H299.647V399.56H320.167V404H294.607Z" fill="#808080"/>
<path d="M95.5525 49.52V39.68C98.8325 39.52 101.393 38.72 103.233 37.28C105.113 35.84 106.053 33.86 106.053 31.34V30.5C106.053 28.46 105.413 26.84 104.133 25.64C102.853 24.4 101.133 23.78 98.9725 23.78C96.6525 23.78 94.7925 24.44 93.3925 25.76C92.0325 27.08 91.1125 28.76 90.6325 30.8L86.1925 29.12C86.5525 27.84 87.0725 26.62 87.7525 25.46C88.4725 24.26 89.3525 23.22 90.3925 22.34C91.4725 21.42 92.7325 20.7 94.1725 20.18C95.6125 19.66 97.2725 19.4 99.1525 19.4C102.873 19.4 105.813 20.42 107.973 22.46C110.133 24.5 111.213 27.26 111.213 30.74C111.213 32.66 110.873 34.34 110.193 35.78C109.553 37.18 108.713 38.38 107.673 39.38C106.633 40.38 105.453 41.18 104.133 41.78C102.813 42.38 101.493 42.8 100.173 43.04V49.52H95.5525ZM97.8925 62.72C96.6125 62.72 95.6725 62.4 95.0725 61.76C94.5125 61.12 94.2325 60.28 94.2325 59.24V58.46C94.2325 57.42 94.5125 56.58 95.0725 55.94C95.6725 55.3 96.6125 54.98 97.8925 54.98C99.1725 54.98 100.092 55.3 100.652 55.94C101.253 56.58 101.553 57.42 101.553 58.46V59.24C101.553 60.28 101.253 61.12 100.652 61.76C100.092 62.4 99.1725 62.72 97.8925 62.72ZM124.146 49.52V39.68C127.426 39.52 129.986 38.72 131.826 37.28C133.706 35.84 134.646 33.86 134.646 31.34V30.5C134.646 28.46 134.006 26.84 132.726 25.64C131.446 24.4 129.726 23.78 127.566 23.78C125.246 23.78 123.386 24.44 121.986 25.76C120.626 27.08 119.706 28.76 119.226 30.8L114.786 29.12C115.146 27.84 115.666 26.62 116.346 25.46C117.066 24.26 117.946 23.22 118.986 22.34C120.066 21.42 121.326 20.7 122.766 20.18C124.206 19.66 125.866 19.4 127.746 19.4C131.466 19.4 134.406 20.42 136.566 22.46C138.726 24.5 139.806 27.26 139.806 30.74C139.806 32.66 139.466 34.34 138.786 35.78C138.146 37.18 137.306 38.38 136.266 39.38C135.226 40.38 134.046 41.18 132.726 41.78C131.406 42.38 130.086 42.8 128.766 43.04V49.52H124.146ZM126.486 62.72C125.206 62.72 124.266 62.4 123.666 61.76C123.106 61.12 122.826 60.28 122.826 59.24V58.46C122.826 57.42 123.106 56.58 123.666 55.94C124.266 55.3 125.206 54.98 126.486 54.98C127.766 54.98 128.686 55.3 129.246 55.94C129.846 56.58 130.146 57.42 130.146 58.46V59.24C130.146 60.28 129.846 61.12 129.246 61.76C128.686 62.4 127.766 62.72 126.486 62.72ZM152.74 49.52V39.68C156.02 39.52 158.58 38.72 160.42 37.28C162.3 35.84 163.24 33.86 163.24 31.34V30.5C163.24 28.46 162.6 26.84 161.32 25.64C160.04 24.4 158.32 23.78 156.16 23.78C153.84 23.78 151.98 24.44 150.58 25.76C149.22 27.08 148.3 28.76 147.82 30.8L143.38 29.12C143.74 27.84 144.26 26.62 144.94 25.46C145.66 24.26 146.54 23.22 147.58 22.34C148.66 21.42 149.92 20.7 151.36 20.18C152.8 19.66 154.46 19.4 156.34 19.4C160.06 19.4 163 20.42 165.16 22.46C167.32 24.5 168.4 27.26 168.4 30.74C168.4 32.66 168.06 34.34 167.38 35.78C166.74 37.18 165.9 38.38 164.86 39.38C163.82 40.38 162.64 41.18 161.32 41.78C160 42.38 158.68 42.8 157.36 43.04V49.52H152.74ZM155.08 62.72C153.8 62.72 152.86 62.4 152.26 61.76C151.7 61.12 151.42 60.28 151.42 59.24V58.46C151.42 57.42 151.7 56.58 152.26 55.94C152.86 55.3 153.8 54.98 155.08 54.98C156.36 54.98 157.28 55.3 157.84 55.94C158.44 56.58 158.74 57.42 158.74 58.46V59.24C158.74 60.28 158.44 61.12 157.84 61.76C157.28 62.4 156.36 62.72 155.08 62.72ZM181.334 49.52V39.68C184.614 39.52 187.174 38.72 189.014 37.28C190.894 35.84 191.834 33.86 191.834 31.34V30.5C191.834 28.46 191.194 26.84 189.914 25.64C188.634 24.4 186.914 23.78 184.754 23.78C182.434 23.78 180.574 24.44 179.174 25.76C177.814 27.08 176.894 28.76 176.414 30.8L171.974 29.12C172.334 27.84 172.854 26.62 173.534 25.46C174.254 24.26 175.134 23.22 176.174 22.34C177.254 21.42 178.514 20.7 179.954 20.18C181.394 19.66 183.054 19.4 184.934 19.4C188.654 19.4 191.594 20.42 193.754 22.46C195.914 24.5 196.994 27.26 196.994 30.74C196.994 32.66 196.654 34.34 195.974 35.78C195.334 37.18 194.494 38.38 193.454 39.38C192.414 40.38 191.234 41.18 189.914 41.78C188.594 42.38 187.274 42.8 185.954 43.04V49.52H181.334ZM183.674 62.72C182.394 62.72 181.454 62.4 180.854 61.76C180.294 61.12 180.014 60.28 180.014 59.24V58.46C180.014 57.42 180.294 56.58 180.854 55.94C181.454 55.3 182.394 54.98 183.674 54.98C184.954 54.98 185.874 55.3 186.434 55.94C187.034 56.58 187.334 57.42 187.334 58.46V59.24C187.334 60.28 187.034 61.12 186.434 61.76C185.874 62.4 184.954 62.72 183.674 62.72Z" fill="#808080"/>
</svg>
