<svg width="84" height="84" viewBox="0 0 84 84" fill="none" xmlns="http://www.w3.org/2000/svg">
<path d="M84 84H0V61H10V74H74V10H10V23H0V0H84V84Z" fill="white"/>
<path d="M4 42H50" stroke="white" stroke-width="8" stroke-linecap="square"/>
<mask id="path-3-inside-1_1404_162" fill="white">
<path d="M24 41.6777L41.6777 24.0001L59.3553 41.6777L41.6777 59.3554L24 41.6777Z"/>
</mask>
<path d="M59.3553 41.6777L65.0122 47.3346L70.669 41.6777L65.0122 36.0209L59.3553 41.6777ZM41.6777 24.0001L36.0208 29.6569L53.6985 47.3346L59.3553 41.6777L65.0122 36.0209L47.3345 18.3432L41.6777 24.0001ZM59.3553 41.6777L53.6985 36.0209L36.0208 53.6986L41.6777 59.3554L47.3345 65.0123L65.0122 47.3346L59.3553 41.6777Z" fill="white" mask="url(#path-3-inside-1_1404_162)"/>
</svg>
