<svg width="1024" height="1024" viewBox="0 0 1024 1024" fill="none" xmlns="http://www.w3.org/2000/svg">
<rect width="1024" height="1024" fill="black"/>
<path d="M193 193H288.5V253H253V770H770V253H537.5V193H830V830H193V193Z" fill="white"/>
<path d="M413.802 221.2C413.802 230.133 412.602 238.067 410.202 245C407.935 251.8 404.602 257.6 400.202 262.4C395.935 267.2 390.668 270.867 384.402 273.4C378.268 275.8 371.402 277 363.802 277C356.735 277 350.202 275.8 344.202 273.4C338.202 270.867 333.002 267.2 328.602 262.4C324.202 257.6 320.735 251.8 318.202 245C315.802 238.067 314.602 230.133 314.602 221.2C314.602 209.333 316.602 199.333 320.602 191.2C324.602 182.933 330.335 176.667 337.802 172.4C345.268 168 354.135 165.8 364.402 165.8C374.135 165.8 382.668 168 390.002 172.4C397.468 176.667 403.268 182.933 407.402 191.2C411.668 199.333 413.802 209.333 413.802 221.2ZM332.802 221.2C332.802 229.6 333.868 236.933 336.002 243.2C338.268 249.333 341.735 254.067 346.402 257.4C351.068 260.733 357.002 262.4 364.202 262.4C371.402 262.4 377.335 260.733 382.002 257.4C386.668 254.067 390.068 249.333 392.202 243.2C394.468 236.933 395.602 229.6 395.602 221.2C395.602 212.667 394.468 205.4 392.202 199.4C389.935 193.4 386.468 188.8 381.802 185.6C377.268 182.267 371.335 180.6 364.002 180.6C353.068 180.6 345.135 184.2 340.202 191.4C335.268 198.6 332.802 208.533 332.802 221.2ZM511.495 245.4C511.495 252.333 509.762 258.133 506.295 262.8C502.829 267.467 497.895 271 491.495 273.4C485.095 275.8 477.495 277 468.695 277C461.229 277 454.762 276.4 449.295 275.2C443.962 274 439.229 272.333 435.095 270.2V254.2C439.362 256.333 444.495 258.333 450.495 260.2C456.629 261.933 462.829 262.8 469.095 262.8C478.029 262.8 484.495 261.4 488.495 258.6C492.495 255.667 494.495 251.8 494.495 247C494.495 244.333 493.762 241.933 492.295 239.8C490.829 237.667 488.162 235.533 484.295 233.4C480.562 231.267 475.162 228.867 468.095 226.2C461.162 223.533 455.229 220.867 450.295 218.2C445.362 215.533 441.562 212.333 438.895 208.6C436.229 204.867 434.895 200.067 434.895 194.2C434.895 185.133 438.562 178.133 445.895 173.2C453.362 168.267 463.095 165.8 475.095 165.8C481.629 165.8 487.695 166.467 493.295 167.8C499.029 169 504.362 170.733 509.295 173L503.295 187C500.362 185.667 497.229 184.533 493.895 183.6C490.695 182.533 487.429 181.733 484.095 181.2C480.762 180.533 477.362 180.2 473.895 180.2C466.695 180.2 461.162 181.4 457.295 183.8C453.562 186.067 451.695 189.2 451.695 193.2C451.695 196.133 452.562 198.667 454.295 200.8C456.029 202.8 458.895 204.8 462.895 206.8C467.029 208.667 472.495 210.933 479.295 213.6C486.095 216.133 491.895 218.733 496.695 221.4C501.495 224.067 505.162 227.333 507.695 231.2C510.229 234.933 511.495 239.667 511.495 245.4Z" fill="white"/>
</svg>
