<svg width="247" height="156" viewBox="0 0 247 156" fill="none" xmlns="http://www.w3.org/2000/svg">
<path d="M1.02539 29H227.025V129H1.02539V29Z" stroke="#808080" stroke-width="2"/>
<path d="M27.541 1.20751C27.6725 1.07471 27.8516 1 28.0384 1H200.72C200.915 1 201.101 1.08105 201.233 1.22368L225.933 27.8237C226.349 28.2716 226.031 29 225.42 29H1.70344C1.08149 29 0.768426 28.2495 1.206 27.8075L27.541 1.20751Z" stroke="#808080" stroke-width="2"/>
<rect x="15.0254" y="43" width="198" height="72" stroke="#808080" stroke-width="2"/>
<line x1="125.025" y1="114" x2="125.025" y2="44" stroke="#808080" stroke-width="2"/>
<line x1="147.025" y1="114" x2="147.025" y2="44" stroke="#808080" stroke-width="2"/>
<line x1="169.025" y1="114" x2="169.025" y2="44" stroke="#808080" stroke-width="2"/>
<line x1="191.025" y1="114" x2="191.025" y2="44" stroke="#808080" stroke-width="2"/>
<line x1="103.025" y1="114" x2="103.025" y2="44" stroke="#808080" stroke-width="2"/>
<line x1="59.0254" y1="114" x2="59.0254" y2="44" stroke="#808080" stroke-width="2"/>
<line x1="81.0254" y1="114" x2="81.0254" y2="44" stroke="#808080" stroke-width="2"/>
<line x1="37.0254" y1="114" x2="37.0254" y2="44" stroke="#808080" stroke-width="2"/>
<g filter="url(#filter0_d_2106_168)">
<rect x="198.025" y="114" width="8" height="2" fill="#45FD7C"/>
</g>
<defs>
<filter id="filter0_d_2106_168" x="158.025" y="74" width="88" height="82" filterUnits="userSpaceOnUse" color-interpolation-filters="sRGB">
<feFlood flood-opacity="0" result="BackgroundImageFix"/>
<feColorMatrix in="SourceAlpha" type="matrix" values="0 0 0 0 0 0 0 0 0 0 0 0 0 0 0 0 0 0 127 0" result="hardAlpha"/>
<feMorphology radius="10" operator="dilate" in="SourceAlpha" result="effect1_dropShadow_2106_168"/>
<feOffset/>
<feGaussianBlur stdDeviation="15"/>
<feComposite in2="hardAlpha" operator="out"/>
<feColorMatrix type="matrix" values="0 0 0 0 0.270588 0 0 0 0 0.992157 0 0 0 0 0.487059 0 0 0 0.4 0"/>
<feBlend mode="normal" in2="BackgroundImageFix" result="effect1_dropShadow_2106_168"/>
<feBlend mode="normal" in="SourceGraphic" in2="effect1_dropShadow_2106_168" result="shape"/>
</filter>
</defs>
</svg>
